<svg xmlns="http://www.w3.org/2000/svg" width="100" height="99.957" viewBox="0 0 100 99.957">
  <g id="noun-download-7280394" transform="translate(-5 -5.018)">
    <path id="Pfad_26" data-name="Pfad 26" d="M98.333,70.531c0-4.388,6.667-4.388,6.667,0V94.168a10.839,10.839,0,0,1-10.807,10.807H15.807A10.831,10.831,0,0,1,5,94.168V70.531c0-4.388,6.667-4.388,6.667,0V94.168a4.162,4.162,0,0,0,4.141,4.141H94.192a4.154,4.154,0,0,0,4.141-4.141ZM56.328,78.587l.972-.647L81.037,54.2c3.1-3.1-1.61-7.817-4.714-4.714L58.333,67.484V8.309c0-4.388-6.667-4.388-6.667,0V67.484l-17.99-17.99c-3.1-3.1-7.817,1.61-4.714,4.714l23.68,23.68a3.327,3.327,0,0,0,3.685.7Z" fill-rule="evenodd"/>
  </g>
</svg>
